<?xml version="1.0" encoding="utf-8"?>
<!-- Generator: Adobe Illustrator 23.0.1, SVG Export Plug-In . SVG Version: 6.00 Build 0)  -->
<svg version="1.1" id="Capa_1" xmlns="http://www.w3.org/2000/svg" xmlns:xlink="http://www.w3.org/1999/xlink" x="0px" y="0px"
	 viewBox="0 0 600 600" style="enable-background:new 0 0 600 600;" xml:space="preserve">
<style type="text/css">
	.st0{fill:url(#SVGID_1_);}
	.st1{fill:#2DCCCD;}
	.st2{clip-path:url(#SVGID_3_);}
	.st3{fill:none;}
	.st4{fill:url(#SVGID_4_);}
</style>
<title>Mesa de trabajo 1 copia 25</title>
<g>
	<g>
		
			<linearGradient id="SVGID_1_" gradientUnits="userSpaceOnUse" x1="267.6229" y1="533.4909" x2="481.1029" y2="131.9909" gradientTransform="matrix(1 0 0 -1 0 600)">
			<stop  offset="0" style="stop-color:#192647"/>
			<stop  offset="0" style="stop-color:#192647;stop-opacity:0.5"/>
			<stop  offset="1" style="stop-color:#192647;stop-opacity:0"/>
		</linearGradient>
		<path class="st0" d="M504.8,261.7c-7.6-24.1-22.5-45.2-42.7-60.4c-42.5-31.7-100.8-31.7-143.3,0c-30.3,22.6-48.1,58.2-48.1,96
			c0,4.4,0.3,8.9,0.8,13.3l0.1,0.8l0,0c1.4,12,5.3,24,10.3,36.1c6,14.5,44.4,85.1,106.3,159.1l2.2,2.4l2.2-2.4
			c66.4-78.9,100.8-146.4,106.3-159.1c5.2-12,8.9-24.1,10.3-36.1l0.1-0.8c0.5-4.4,0.7-8.9,0.8-13.3
			C510.2,285.2,508.4,273.2,504.8,261.7z M390.5,358.6c-34.2,0-61.9-27.7-61.9-61.9s27.7-61.9,61.9-61.9c34.2,0,61.9,27.7,61.9,61.9
			c0,0,0,0,0,0C452.3,330.9,424.6,358.6,390.5,358.6C390.5,358.6,390.5,358.6,390.5,358.6z"/>
		<path class="st1" d="M421.6,199.1c-7.6-24.1-22.5-45.2-42.7-60.4c-42.5-31.7-100.8-31.7-143.3,0c-30.3,22.6-48.1,58.2-48.1,95.9
			c0,4.4,0.3,8.9,0.8,13.3l0.1,0.8l0,0c1.4,12,5.3,24,10.3,36.1c6,14.5,44.4,85.1,106.3,159.1l2.2,2.4l2.2-2.4
			c66.4-78.9,100.8-146.3,106.3-159.1c5.2-12,8.9-24.1,10.3-36.1l0.1-0.8c0.5-4.4,0.7-8.9,0.8-13.3
			C427,222.7,425.2,210.7,421.6,199.1z M307.3,296.1c-34.2,0-61.9-27.7-61.9-61.9c0-34.2,27.7-61.9,61.9-61.9
			c34.2,0,61.9,27.7,61.9,61.9c0,0,0,0,0,0C369.1,268.4,341.4,296.1,307.3,296.1C307.3,296.1,307.3,296.1,307.3,296.1z"/>
		<g>
			<defs>
				<path id="SVGID_2_" d="M421.3,199.1c-7.6-24.1-22.5-45.2-42.7-60.3c-42.5-31.7-100.8-31.7-143.3,0
					c-30.3,22.6-48.1,58.2-48.1,95.9c0,4.4,0.3,8.9,0.8,13.3l0.1,0.8l0,0c1.4,12,5.3,24,10.3,36.1c6,14.5,44.4,85.1,106.3,159.1
					l2.2,2.4l2.2-2.4C375.6,365.2,410,297.8,415.5,285c5.2-12,8.9-24.1,10.3-36.1l0.1-0.8c0.5-4.4,0.7-8.9,0.8-13.3
					C426.7,222.7,424.9,210.7,421.3,199.1z M307,296.1c-34.2,0-61.9-27.7-61.9-61.9c0-34.2,27.7-61.9,61.9-61.9
					c34.2,0,61.9,27.7,61.9,61.9c0,0,0,0,0,0C368.9,268.4,341.2,296.1,307,296.1z"/>
			</defs>
			<clipPath id="SVGID_3_">
				<use xlink:href="#SVGID_2_"  style="overflow:visible;"/>
			</clipPath>
			<g class="st2">
				<path class="st3" d="M307,172.3c-34.2-0.1-61.9,27.6-62,61.8s27.6,61.9,61.8,62c2.4,0,4.8-0.1,7.2-0.4l49.9-85.9
					C354.1,187,331.7,172.3,307,172.3z"/>
				<path class="st3" d="M307,296.1c-34.2,0-61.9-27.7-61.9-61.9s27.7-61.9,61.9-61.9c24.7,0,47.1,14.7,56.8,37.4l32-55.2
					c-5.2-5.8-11-11.1-17.2-15.7c-42.5-31.7-100.8-31.7-143.3,0c-30.3,22.6-48.1,58.2-48.1,95.9c0,4.4,0.3,8.9,0.8,13.3l0.1,0.8l0,0
					c1.4,12,5.3,24,10.3,36.1c4.4,10.7,26.4,51.8,62.4,102.2l53.1-91.6C311.6,295.9,309.3,296.1,307,296.1z"/>
				
					<linearGradient id="SVGID_4_" gradientUnits="userSpaceOnUse" x1="538" y1="299.5" x2="231.22" y2="299.5" gradientTransform="matrix(1 0 0 -1 0 600)">
					<stop  offset="0" style="stop-color:#02A5A5"/>
					<stop  offset="1" style="stop-color:#02A5A5;stop-opacity:0"/>
				</linearGradient>
				<path class="st4" d="M307,446.5l2.2-2.4C375.6,365.2,410,297.8,415.5,285c5.2-12,8.9-24.1,10.3-36.1l0.1-0.8
					c0.5-4.4,0.7-8.9,0.8-13.3c0.1-29.6-11-58.2-30.9-80.2l-32,55.2c13.5,31.4-1,67.8-32.4,81.3c-5.6,2.4-11.4,4-17.5,4.6
					l-53.2,91.5c12.9,18.1,27.6,37.4,43.9,56.9L307,446.5z"/>
			</g>
		</g>
	</g>
</g>
</svg>
