<svg id="Capa_1" data-name="Capa 1" xmlns="http://www.w3.org/2000/svg" xmlns:xlink="http://www.w3.org/1999/xlink" viewBox="0 0 600 600"><defs><style>.cls-1{fill:none;}.cls-2{fill:url(#Degradado_sin_nombre_2);}.cls-3{fill:#1464a5;}.cls-4{clip-path:url(#clip-path);}.cls-5{fill:#2dcccd;}.cls-6{clip-path:url(#clip-path-2);}.cls-7{fill-rule:evenodd;opacity:0.5;fill:url(#Degradado_sin_nombre_9);}.cls-8{clip-path:url(#clip-path-3);}.cls-9{fill:#02a5a5;}.cls-10{fill:#f7b27f;}.cls-11{fill:#072146;}.cls-12{fill:#eb5e62;}.cls-13{fill:#004481;}</style><linearGradient id="Degradado_sin_nombre_2" x1="249.74" y1="151.86" x2="460.29" y2="547.85" gradientUnits="userSpaceOnUse"><stop offset="0" stop-color="#192647"/><stop offset="0" stop-color="#192647" stop-opacity="0.5"/><stop offset="1" stop-color="#192647" stop-opacity="0"/></linearGradient><clipPath id="clip-path"><path class="cls-1" d="M515.58,283c0,114.9-93.15,208-208.05,208s-208-93.15-208-208,93.14-208,208-208,208.05,93.14,208.05,208"/></clipPath><clipPath id="clip-path-2"><path class="cls-1" d="M515.58,283c0,114.91-93.15,208-208.05,208s-208-93.14-208-208,93.14-208,208-208,208.05,93.14,208.05,208"/></clipPath><linearGradient id="Degradado_sin_nombre_9" x1="117.93" y1="137.72" x2="361.45" y2="381.24" gradientUnits="userSpaceOnUse"><stop offset="0" stop-color="#fff" stop-opacity="0.5"/><stop offset="1" stop-color="#edf8f9" stop-opacity="0.2"/><stop offset="1" stop-color="#fff" stop-opacity="0"/></linearGradient><clipPath id="clip-path-3"><circle class="cls-1" cx="307.53" cy="283.04" r="208.04"/></clipPath></defs><title>Valores_BBVA_OK</title><path class="cls-2" d="M543.26,238.71c-37.43-67-109-112.36-191.06-112.36-120.62,0-218.75,98.12-218.75,218.74A217.35,217.35,0,0,0,166.77,461c37.43,67,109,112.37,191.08,112.37,120.61,0,218.73-98.13,218.73-218.74A217.36,217.36,0,0,0,543.26,238.71Z"/><path class="cls-3" d="M515.58,283c0,114.9-93.15,208-208.05,208s-208-93.15-208-208,93.14-208,208-208,208.05,93.14,208.05,208"/><g class="cls-4"><path class="cls-5" d="M558.18,389.05c0,138.42-112.22,250.64-250.65,250.64S56.89,527.47,56.89,389.05,169.1,138.4,307.53,138.4,558.18,250.62,558.18,389.05"/></g><g class="cls-6"><polygon class="cls-7" points="99.35 74.86 99.35 491.19 186.88 491.23 427.12 74.86 99.35 74.86"/></g><g class="cls-8"><path class="cls-9" d="M423.44,497,336.58,142.08a3,3,0,0,0-2.57-2.26,248,248,0,0,0-52.95,0,3,3,0,0,0-2.57,2.26L191.62,497Z"/></g><g class="cls-8"><rect class="cls-10" x="364.99" y="290.97" width="41.61" height="37.65"/><path class="cls-11" d="M373.91,207.75h23.78a24.77,24.77,0,0,1,24.77,24.77v31.7a36.66,36.66,0,0,1-36.66,36.66h0a36.66,36.66,0,0,1-36.66-36.66v-31.7A24.77,24.77,0,0,1,373.91,207.75Z"/><path class="cls-12" d="M367,312.76h37.65a59.44,59.44,0,0,1,59.44,59.44V510.9a0,0,0,0,1,0,0H307.53a0,0,0,0,1,0,0V372.21A59.44,59.44,0,0,1,367,312.76Z"/><ellipse class="cls-10" cx="385.8" cy="312.76" rx="20.8" ry="6.93"/><path class="cls-10" d="M376.42,425.78c17.7,3.86,29,1.76,36.67-2.2,8.36-4.32,14.5-14.58,14.5-20.93s-19.48-4.08-27.29-5.44,3.38-13-3.05-13.93-26.13,14.61-26.13,14.61Z"/><path class="cls-13" d="M375,389.08c-.48,0-6.72.21-9.49.29-25.78.74-45.42,1.29-57.86-25.76l-34.07,23.62C295,426.62,330.38,431,355.7,431c3.91,0,7.58-.1,10.93-.2,2.54-.07,8-.43,8.33-.43,5.8,0,7.56-9.24,7.56-20.63S380.76,389.08,375,389.08Z"/><rect class="cls-10" x="209.46" y="290.97" width="41.61" height="37.65"/><path class="cls-11" d="M218.37,207.75h23.78a24.77,24.77,0,0,1,24.77,24.77v31.7a36.66,36.66,0,0,1-36.66,36.66h0a36.66,36.66,0,0,1-36.66-36.66v-31.7A24.77,24.77,0,0,1,218.37,207.75Z"/><path class="cls-13" d="M211.44,312.76h37.65a59.44,59.44,0,0,1,59.44,59.44V510.9a0,0,0,0,1,0,0H152a0,0,0,0,1,0,0V372.21A59.44,59.44,0,0,1,211.44,312.76Z"/><ellipse class="cls-10" cx="230.26" cy="312.76" rx="20.8" ry="6.93"/></g></svg>