<svg width="72" height="70" xmlns="http://www.w3.org/2000/svg"><defs><linearGradient x1="21.998%" y1="-2.67%" x2="75.639%" y2="98.214%" id="a"><stop stop-color="#192647" offset="0%"/><stop stop-color="#192647" stop-opacity=".5" offset="0%"/><stop stop-color="#192647" stop-opacity="0" offset="100%"/></linearGradient><linearGradient x1="100.54%" y1="49.99%" x2="-.004%" y2="49.99%" id="b"><stop stop-color="#043263" stop-opacity=".6" offset="0%"/><stop stop-color="#043263" stop-opacity="0" offset="100%"/></linearGradient></defs><g transform="translate(8 7)" fill="none"><circle fill="url(#a)" cx="34.711" cy="34.864" r="28.136"/><circle fill="#1464A5" cx="28.136" cy="28.136" r="28.136"/><path d="M41.269 3.364L14.833 53.102c13.804 7.167 30.812 1.767 37.962-12.038 7.067-13.607 1.932-30.368-11.526-37.7z" fill="url(#b)"/><path fill="#2DCCCD" d="M25.383 38.723v-17.01h5.047V43.58h-.166zm-.305-22.845a3.056 3.056 0 013.083-3.033 3.056 3.056 0 013.033 3.083 3.06 3.06 0 01-3.05 3.033c-1.707-.016-3.083-1.392-3.066-3.083"/></g></svg>