<svg width="92" height="108" xmlns="http://www.w3.org/2000/svg" xmlns:xlink="http://www.w3.org/1999/xlink"><defs><path id="a" d="M0 .053h51.543v68.123H0z"/><path d="M15.692 3.66a3.556 3.556 0 00-.295.718c-.152.497-.177.936-.203 1.273-.202 3.391-.38 6.048-.531 8.2l-.16 2.108c-.262 3.189-.49 5.002-.81 6.572a47.481 47.481 0 01-.6 2.623c-.53 2.066-1.13 3.458-2.243 4.985-2.303 3.138-7.27 4.926-9.76 5.98-.337.144-.792.228-.877.456-.447 1.24 9.524 12.822 21.3 12.712 10.4-.11 20.581-9.962 21.13-13.488.05-.295-1.156-.633-1.519-.869-.168-.118-4.15-2.033-8.064-5.373-2.303-1.965-2.8-4.732-3.518-8.747-.236-1.3-.463-3.18-.59-5.458-.042-.7-.084-1.442-.101-2.219-.008-.455-.017-.919-.017-1.392a69.704 69.704 0 01.245-6.722c0-.042.008-.085.008-.127.085-.978.152-1.881-.388-2.7C27.828.877 25.727.237 23.437.237c-3.094 0-6.533 1.17-7.745 3.425z" id="c"/></defs><g fill="none" fill-rule="evenodd"><g transform="translate(20 .202)"><mask id="b" fill="#fff"><use xlink:href="#a"/></mask><path d="M3.436 64.91s9.691 3.266 24.17 3.266c14.48 0 23-4.118 23-4.118s-2.272-3.266-.853-11.785c1.42-8.52 3.125-19.17.143-31.097C46.914 9.248 40.382-1.118 24.336.16 8.291 1.438-.797 16.774.055 28.418c.852 11.643 6.39 22.151 6.532 25.417.142 3.266-3.15 11.075-3.15 11.075" fill="#C35302" mask="url(#b)"/></g><path d="M67.495 81.458c-.549 3.526-10.73 13.378-21.13 13.488-11.776.11-21.747-11.472-21.3-12.712.085-.228.54-.312.878-.455 2.488-1.055 7.456-2.843 9.76-5.981 1.113-1.527 1.712-2.919 2.243-4.985a47.41 47.41 0 00.6-2.624c.32-1.569.547-3.382.809-6.57l.16-2.11c.152-2.15.33-4.808.531-8.199.026-.337.051-.776.203-1.273.067-.228.16-.473.295-.717 2.11-3.923 10.958-4.564 13.007-1.468.54.818.473 1.72.388 2.7 0 .041-.008.084-.008.126a69.698 69.698 0 00-.245 6.723c0 .472.009.936.017 1.391.017.776.06 1.519.101 2.219.127 2.277.355 4.159.59 5.458.718 4.014 1.215 6.781 3.518 8.747 3.914 3.34 7.896 5.255 8.065 5.373.362.236 1.568.574 1.518.869" fill="#F1C0C7"/><g transform="translate(24.852 45.659)"><mask id="d" fill="#fff"><use xlink:href="#c"/></mask><path d="M29.203 10.461c-.356 1.852-.72 3.703-1.085 5.554-.146.306-.299.595-.442.876-1.186 2.153-2.534 3.47-3.547 4.276-3.039 2.409-5.658 2.268-9.711 5.006a22.376 22.376 0 00-3.094 2.487c.248-.72.493-1.528.756-2.464.415-1.476.754-3.192 1.213-6.217.091-.616.185-1.273.291-2.001.286-2.043.629-4.566 1.043-7.788.046-.32.099-.737.28-1.202l13.451 1.385.845.088z" fill="#EAADB9" mask="url(#d)"/></g><path d="M31.135 33.482s-1.844-3.141-3.46-2.775c-.577.13-.906.657-1.044.875-1.644 2.585 1.003 7.962 1.445 8.842.228.416 1.223 2.15 3.003 2.78.421.149 1.242.44 2.169.167.377-.111.665-.274.734-.339 1.939-1.798-2.847-9.55-2.847-9.55" fill="#FFB7BA"/><path d="M46.956 8c-1.746-.099-5.284-.059-9.146 1.8a18.58 18.58 0 00-5.922 4.514c-3.098 4.502-3.83 8.31-4.005 10.62-.116 1.518-.008 3.139.206 6.38.184 2.769.326 4.919.856 7.65.358 1.84.978 4.394 2.121 7.37.131.305.28.634.45.984.126.258.892 1.82 2.082 3.502.854 1.206 2.106 2.976 4.109 4.606 1.573 1.28 3.792 3.086 7.196 3.487.346.04 3.998.49 7.437-1.526 2.727-1.599 4.296-3.5 5.485-5.114a22.1 22.1 0 003.514-7.29c.592-2.533 1.715-5.017 2.115-8.049.491-3.712.11-7.453.149-10.532-.25-1.7-.736-4.085-1.833-6.773a28.56 28.56 0 00-2.31-4.482 16.53 16.53 0 00-5.49-5.045A16.524 16.524 0 0046.956 8" fill="#F1C0C7"/><path d="M39.062 34.83a.512.512 0 11-1.02.07.512.512 0 011.02-.07" fill="#000"/><path d="M40.323 31.96c-2.735-1.526-4.607.953-4.607.953" stroke="#121212" stroke-width=".5"/><path d="M53.01 34.75a.511.511 0 11-1.02.07.511.511 0 011.02-.07" fill="#000"/><path d="M49.88 28.733s2.723-1.496 4.594 1.015" stroke="#121212" stroke-width=".5"/><path stroke="#ED7777" stroke-width=".5" d="M46.94 33.867l.143 5.38-1.082.392"/><path d="M45.771 4.906C24.574 4.86 20.765 24.264 20.765 31.331c0 10.114 1.704 12.198 2.06 19.724.245 5.158-2.344 12.211-2.344 12.211s4.74-5.322 5.68-9.371c1.054-4.544 2.414-14.69 3.408-19.698.994-5.01 2.272-9.836 2.272-9.836s5.963 1.846 15.477 1.846a58.92 58.92 0 004.597-.175l1.083-2.665 1.172 2.44c4.903-.609 7.319-1.694 7.319-1.694l3.153 13.31 1.373-2.531 1.467-5.27S65.59 4.95 45.772 4.906" fill="#C35302"/></g></svg>