<svg id="icons" xmlns="http://www.w3.org/2000/svg" viewBox="0 0 260 260"><defs><style>.cls-1{fill:#237aba}</style></defs><title>1</title><path class="cls-1" d="M199.69 10.79h-140A10.27 10.27 0 0 0 49.61 21v220a9.87 9.87 0 0 0 10.09 9.76h140a9.71 9.71 0 0 0 9.93-9.76V21a10.15 10.15 0 0 0-9.94-10.21zM129.7 241a10 10 0 1 1 10-10 10 10 0 0 1-10 10zm59.92-30.25h-120v-180h120z"/><path class="cls-1" d="M159.93 119.62a65.32 65.32 0 0 1-22.79 49.78l11.86 9.06a80.41 80.41 0 0 0 0-117.67l-11.87 9.05a65.32 65.32 0 0 1 22.8 49.78z"/><path class="cls-1" d="M111.4 149.77l12.52 9.55a56.16 56.16 0 0 0 0-79.4l-12.52 9.55a39 39 0 0 1 0 60.3zM86.36 130.68l10.52 8a24.34 24.34 0 0 0 0-38.16l-10.52 8a14.6 14.6 0 0 1 0 22.12z"/></svg>