<svg xmlns="http://www.w3.org/2000/svg" viewBox="0 0 260 260"><defs><style>.cls-1,.cls-1{fill:#237aba;}.cls-1{fill-rule:evenodd;}</style></defs><title>3</title><g id="icons"><circle class="cls-1" cx="105.41" cy="90.91" r="40.91"/><path class="cls-1" d="M131.77,140a60.33,60.33,0,0,1-26.63,6.15A61.09,61.09,0,0,1,78.33,140C44.95,148,20,177.36,20,212.42V230H190V212.42C190,177.36,165.12,148,131.77,140Z"/><path class="cls-1" d="M161.32,90.91a55.94,55.94,0,0,1-1.19,11.49,36.36,36.36,0,1,0-24-58.2A55.9,55.9,0,0,1,161.32,90.91Z"/><path class="cls-1" d="M240,174.38c0-31.17-22.06-57.3-51.7-64.37a53.5,53.5,0,0,1-23.64,5.47,54.89,54.89,0,0,1-8.69-.71,56.13,56.13,0,0,1-9.52,14.07A89.89,89.89,0,0,1,202.12,190H240Z"/></g></svg>