<?xml version="1.0" encoding="utf-8"?>
<!-- Generator: Adobe Illustrator 23.0.1, SVG Export Plug-In . SVG Version: 6.00 Build 0)  -->
<svg version="1.1" id="Contenido" xmlns="http://www.w3.org/2000/svg" xmlns:xlink="http://www.w3.org/1999/xlink" x="0px" y="0px"
	 viewBox="0 0 600 600" style="enable-background:new 0 0 600 600;" xml:space="preserve">
<style type="text/css">
	.st0{fill:url(#SVGID_1_);}
	.st1{fill:#1464A5;}
	.st2{fill:#49A5E6;}
	.st3{opacity:0.5;fill-rule:evenodd;clip-rule:evenodd;fill:url(#SVGID_2_);enable-background:new    ;}
	.st4{fill:#FFFFFF;}
</style>
<title>_</title>
<linearGradient id="SVGID_1_" gradientUnits="userSpaceOnUse" x1="239.7905" y1="456.0091" x2="459.5695" y2="42.6709" gradientTransform="matrix(1 0 0 -1 0 602)">
	<stop  offset="0" style="stop-color:#192647"/>
	<stop  offset="0" style="stop-color:#192647;stop-opacity:0.5"/>
	<stop  offset="1" style="stop-color:#192647;stop-opacity:0"/>
</linearGradient>
<path class="st0" d="M253.7,141.7h192c12.7,0,23,10.3,23,23v376c0,12.7-10.3,23-23,23h-192c-12.7,0-23-10.3-23-23v-376
	C230.7,152,241,141.7,253.7,141.7z"/>
<path class="st1" d="M204,89h192c12.7,0,23,10.3,23,23v376c0,12.7-10.3,23-23,23H204c-12.7,0-23-10.3-23-23V112
	C181,99.3,191.3,89,204,89z"/>
<rect x="181" y="142" class="st2" width="238" height="316"/>
<linearGradient id="SVGID_2_" gradientUnits="userSpaceOnUse" x1="208.1625" y1="394.1125" x2="353.8525" y2="248.4225" gradientTransform="matrix(1 0 0 -1 0 602)">
	<stop  offset="0" style="stop-color:#FFFFFF;stop-opacity:0.5"/>
	<stop  offset="1" style="stop-color:#EDF8F9;stop-opacity:0.2"/>
	<stop  offset="1" style="stop-color:#FFFFFF;stop-opacity:0"/>
</linearGradient>
<polygon class="st3" points="181.4,142.2 181.4,457.8 263.2,457.8 419,170.1 419,142 "/>
<path class="st4" d="M339,280.4l-15.2,29c-0.3,0.4-0.8,0.6-1.3,0.3c-0.1-0.1-0.3-0.2-0.3-0.3l-15.2-29c-0.2-0.3-0.5-0.5-0.8-0.5
	h-7.4c-0.4,0-0.7,0.3-0.7,0.6c0,0.1,0,0.3,0.1,0.4l24,44.9c0.2,0.4,0.8,0.6,1.2,0.4c0.2-0.1,0.3-0.2,0.4-0.4l24-44.9
	c0.2-0.3,0.1-0.7-0.2-0.9c-0.1-0.1-0.2-0.1-0.4-0.1h-7.4C339.5,280,339.2,280.1,339,280.4"/>
<path class="st4" d="M347.6,319.1l15.2-29c0.3-0.4,0.8-0.6,1.3-0.3c0.1,0.1,0.3,0.2,0.3,0.3l15.2,29c0.2,0.3,0.5,0.5,0.8,0.5h7.4
	c0.4,0,0.7-0.3,0.7-0.6c0-0.1,0-0.2-0.1-0.4l-24-44.9c-0.2-0.4-0.8-0.6-1.2-0.4c-0.1,0.1-0.3,0.2-0.4,0.4l-24,44.9
	c-0.2,0.3-0.1,0.7,0.2,0.9c0.1,0.1,0.2,0.1,0.4,0.1h7.4C347.1,319.6,347.4,319.4,347.6,319.1"/>
<path class="st4" d="M233.8,319.5h-13.7c-0.5,0-0.9-0.4-0.9-0.9v-12.3c0-0.5,0.4-0.9,0.9-0.9h13.7c6.5,0,9.5,1.9,9.5,7
	S240.4,319.5,233.8,319.5 M220.1,286.6h13.5c5,0,7.5,2.1,7.5,6.1s-2.5,6.1-7.5,6.1h-13.5c-0.5,0-0.9-0.4-0.9-0.9c0,0,0,0,0,0v-10.3
	C219.2,287.1,219.6,286.7,220.1,286.6C220.1,286.7,220.1,286.7,220.1,286.6 M243.7,301.3c3.2-1.6,5.2-5,5.2-9.3
	c0-7.2-5.6-12.1-13.6-12.1h-22.8c-0.5,0-0.9,0.4-0.9,0.9c0,0,0,0,0,0v44.5c0,0.5,0.4,0.9,0.9,0.9c0,0,0,0,0,0h21.8
	c10.9,0,16.7-4.7,16.7-13.9C250.9,303.4,243.7,301.3,243.7,301.3"/>
<path class="st4" d="M280.6,319.5h-13.7c-0.5,0-0.9-0.4-0.9-0.9v0v-12.3c0-0.5,0.4-0.9,0.9-0.9h13.7c6.5,0,9.5,1.9,9.5,7
	S287.2,319.5,280.6,319.5 M266.9,286.6h13.5c5,0,7.5,2.1,7.5,6.1s-2.5,6.1-7.5,6.1h-13.5c-0.5,0-0.9-0.4-0.9-0.9c0,0,0,0,0,0v-10.3
	C266,287.1,266.4,286.7,266.9,286.6C266.9,286.7,266.9,286.7,266.9,286.6 M290.5,301.3c3.2-1.6,5.2-5,5.2-9.3
	c0-7.2-5.6-12.1-13.6-12.1h-22.8c-0.5,0-0.9,0.4-0.9,0.9l0,0v44.5c0,0.5,0.4,0.9,0.9,0.9H281c10.9,0,16.7-4.7,16.7-13.9
	C297.7,303.4,290.5,301.3,290.5,301.3"/>
</svg>
