<svg width="288" height="112" xmlns="http://www.w3.org/2000/svg"><defs><linearGradient x1="6.336%" y1="12.312%" x2="47.616%" y2="80.885%" id="a"><stop stop-color="#1A2542" stop-opacity=".5" offset="0%"/><stop stop-color="#1A2542" stop-opacity="0" offset="100%"/></linearGradient></defs><g transform="translate(88 7)" fill="none"><path d="M24.68 98h82.764a4.558 4.558 0 003.94-2.261 4.53 4.53 0 00.017-4.533l-41.379-72.29a4.557 4.557 0 00-3.956-2.291 4.557 4.557 0 00-3.956 2.292L20.724 91.206a4.53 4.53 0 00.017 4.533A4.558 4.558 0 0024.68 98z" fill="url(#a)"/><path d="M4.55 81.375h82.77a4.558 4.558 0 003.94-2.263c.814-1.4.82-3.127.016-4.533L49.893 2.291A4.557 4.557 0 0045.936 0a4.557 4.557 0 00-3.956 2.291L.6 74.58a4.532 4.532 0 00.015 4.531 4.56 4.56 0 003.936 2.265z" fill="#DA3951"/><path d="M45.499 57.75a3.438 3.438 0 01-2.474-1.062A3.688 3.688 0 0142 54.126V23.844c-.033-1.317.626-2.549 1.723-3.218a3.397 3.397 0 013.552 0c1.097.67 1.756 1.901 1.723 3.218v30.282c0 2.002-1.567 3.624-3.5 3.624z" fill="#FFF"/><circle fill="#FFF" cx="45.938" cy="66.938" r="3.938"/></g></svg>